/* XPM */
static char *_aac7b82f37247208644e3901573c89a[] = {
/* columns rows colors chars-per-pixel */
"64 64 238 2 ",
"   c black",
".  c #010100",
"X  c #020200",
"o  c #020202",
"O  c #050301",
"+  c #040401",
"@  c #070703",
"#  c #080502",
"$  c #0D0703",
"%  c #080802",
"&  c #080803",
"*  c #090904",
"=  c #0E0804",
"-  c #0C0C05",
";  c #140B05",
":  c #1D1107",
">  c #16160A",
",  c #18180B",
"<  c #19190B",
"1  c #1D1D09",
"2  c #1E1E09",
"3  c #1B1B0C",
"4  c #1C1C0D",
"5  c #1E1E0E",
"6  c #231409",
"7  c #241509",
"8  c #371F0E",
"9  c #23230B",
"0  c #20200F",
"q  c #25250C",
"w  c #2E2E0F",
"e  c #38200F",
"r  c #39200F",
"t  c #232310",
"y  c #252511",
"u  c #282812",
"i  c #2A2A13",
"p  c #2D2D15",
"a  c #2E2E15",
"s  c #2F2F15",
"d  c #2F2F16",
"f  c #3A2010",
"g  c #313115",
"h  c #303016",
"j  c #3C3C13",
"k  c #3D3D13",
"l  c #373719",
"z  c #38381A",
"x  c #39391A",
"c  c #272727",
"v  c #4A2813",
"b  c #4B2914",
"n  c #72381B",
"m  c #7F3B1C",
"M  c #7E3B1D",
"N  c #444415",
"B  c #474716",
"V  c #4A4A18",
"C  c #4B4B18",
"Z  c #4E4E19",
"A  c #4A4A1E",
"S  c #505019",
"D  c #51511C",
"F  c #464620",
"G  c #474721",
"H  c #535326",
"J  c #585829",
"K  c #5D5D2B",
"L  c #5E5E2B",
"P  c #626221",
"I  c #656520",
"U  c #6A6A22",
"Y  c #6B6B22",
"T  c #6A6A24",
"R  c #65652B",
"E  c #60602D",
"W  c #63632E",
"Q  c #64642E",
"!  c #65652F",
"~  c #6B652E",
"^  c #6E6E2A",
"/  c #7B7B29",
"(  c #6C6C32",
")  c #6E6E33",
"_  c #727235",
"`  c #747436",
"'  c #7E7E31",
"]  c #7C7C3A",
"[  c #7D7D3A",
"{  c #7E7E3A",
"}  c #434343",
"|  c gray31",
" . c #505050",
".. c #535353",
"X. c #6D6D6D",
"o. c gray43",
"O. c #797979",
"+. c #9E0606",
"@. c #A00C08",
"#. c #A3180E",
"$. c #A3190E",
"%. c #8B3C1D",
"&. c #8C3C1D",
"*. c #8E3C1D",
"=. c #8F3C1D",
"-. c #8C3C1E",
";. c #9D361B",
":. c #953B1D",
">. c #903C1D",
",. c #913C1D",
"<. c #A42413",
"1. c #A32A16",
"2. c #A32B16",
"3. c #A32C16",
"4. c #A22E18",
"5. c #A13018",
"6. c #AE371C",
"7. c #AE381C",
"8. c #AF391D",
"9. c #AF3A1D",
"0. c #AF3B1E",
"q. c #AE3E1F",
"w. c #B03D1F",
"e. c #B03E1F",
"r. c #85852C",
"t. c #8E8E30",
"y. c #8F8F30",
"u. c #8D8D3B",
"i. c #929230",
"p. c #939332",
"a. c #969631",
"s. c #989832",
"d. c #999932",
"f. c #9A9A32",
"g. c #9B9B33",
"h. c #9D9D33",
"j. c #999936",
"k. c #9E9E35",
"l. c #9F9F35",
"z. c #9A9A3A",
"x. c #9A9A3C",
"c. c #A0A035",
"v. c #A3A334",
"b. c #A2A235",
"n. c #A1A136",
"m. c #A2A236",
"M. c #A3A336",
"N. c #A3A337",
"B. c #A7A735",
"V. c #A6A636",
"C. c #A7A736",
"Z. c #A8A836",
"A. c #A6A638",
"S. c #A4A43A",
"D. c #A6A63C",
"F. c #A8A838",
"G. c #A8A839",
"H. c #AAAA39",
"J. c #A9A93A",
"K. c #ABAB3A",
"L. c #ACAC3B",
"P. c #ADAD3B",
"I. c #A9A93C",
"U. c #ADAD3C",
"Y. c #AEAE3C",
"T. c #B2B23F",
"R. c #8F8F42",
"E. c #939344",
"W. c #949445",
"Q. c #999947",
"!. c #9B9B48",
"~. c #AFAF46",
"^. c #A3A34C",
"/. c #A4A44C",
"(. c #A9A94E",
"). c #AAAA4E",
"_. c #AAAA4F",
"`. c #B6B646",
"'. c #B6B648",
"]. c #BDBD49",
"[. c #BDBD4B",
"{. c #BCBC4D",
"}. c #BFBF4F",
"|. c #ACAC50",
" X c #ADAD50",
".X c #B3B353",
"XX c #B5B554",
"oX c #B6B654",
"OX c #B6B655",
"+X c #B7B755",
"@X c #BDBD57",
"#X c #BFBF58",
"$X c #C0B855",
"%X c #C5C556",
"&X c #CACA57",
"*X c #C3C35A",
"=X c #C7C75C",
"-X c #CECE58",
";X c #C9C95D",
":X c #CBCB5E",
">X c #D1D159",
",X c #D2D25E",
"<X c #D4D45E",
"1X c #CECE60",
"2X c #CFCF60",
"3X c #D2D261",
"4X c #D2D262",
"5X c #D4D462",
"6X c #D6D663",
"7X c #D8D864",
"8X c #D9D965",
"9X c #DADA65",
"0X c #DCDC66",
"qX c #DFDF68",
"wX c #E2DA65",
"eX c #E3DB66",
"rX c #E3DC66",
"tX c #E3DD67",
"yX c #E4DE67",
"uX c #E2E267",
"iX c #E1E168",
"pX c #E2E268",
"aX c #E3E369",
"sX c #E4E46A",
"dX c #E5E56A",
"fX c #E5E56B",
"gX c #E6E66A",
"hX c #E6E66B",
"jX c #808080",
"kX c gray51",
"lX c gray56",
"zX c gray58",
"xX c #AAAAAA",
"cX c #AEAEAE",
"vX c gray",
"bX c #EFEFEF",
"nX c #FEFEFE",
"mX c None",
/* pixels */
"mXmXmXmXmXmXmXmXmXmXmXmXmXmXmXmXmXmXmXmXmXmXmXmXmXmXhXhXhXhXhXhXhXhXhXhXhXhXmXmXmXmXmXmXmXmXmXmXmXmXmXmXmXmXmXmXmXmXmXmXmXmXmXmX",
"mXmXmXmXmXmXmXmXmXmXmXmXmXmXmXmXmXmXmXmXmXmXhXhXhXhXhXhXhXhXhXhXhXhXhXhXhXhXhXhXhXhXmXmXmXmXmXmXmXmXmXmXmXmXmXmXmXmXmXmXmXmXmXmX",
"mXmXmXmXmXmXmXmXmXmXmXmXmXmXmXmXmXmXmXmXhXhXhXhXhX3X^.{ K G l h a x F K { ^.3XhXhXhXhXhXmXmXmXmXmXmXmXmXmXmXmXmXmXmXmXmXmXmXmXmX",
"mXmXmXmXmXmXmXmXmXmXmXmXmXmXmXmXmXhXhXhXhXhX|.W y                             y W |.hXhXhXhXhXmXmXmXmXmXmXmXmXmXmXmXmXmXmXmXmXmX",
"mXmXmXmXmXmXmXmXmXmXmXmXmXmXmXmXhXhXhX3X_ <                                         3 _ 3XhXhXhXmXmXmXmXmXmXmXmXmXmXmXmXmXmXmXmX",
"mXmXmXmXmXmXmXmXmXmXmXmXmXmXhXhXhX3XQ &                                                 & ! 3XhXhXhXmXmXmXmXmXmXmXmXmXmXmXmXmXmX",
"mXmXmXmXmXmXmXmXmXmXmXmXmXhXhXaX{ -                                                         - { aXhXhXmXmXmXmXmXmXmXmXmXmXmXmXmX",
"mXmXmXmXmXmXmXmXmXmXmXhXhXhX*Xa                                                                 a *XhXhXhXmXmXmXmXmXmXmXmXmXmXmX",
"mXmXmXmXmXmXmXmXmXmXhXhXhXE.&                                                                     & E.hXhXhXmXmXmXmXmXmXmXmXmXmX",
"mXmXmXmXmXmXmXmXmXhXhXhX(                                                                             ) hXhXhXmXmXmXmXmXmXmXmXmX",
"mXmXmXmXmXmXmXmXhXhXaXJ                                                                                 J aXhXhXmXmXmXmXmXmXmXmX",
"mXmXmXmXmXmXmXhXhXhXJ       e v :                                                                         J hXhXhXmXmXmXmXmXmXmX",
"mXmXmXmXmXmXmXhXhX)     : 1.+.+.+.1.n @           =                                                         ) hXhXmXmXmXmXmXmXmX",
"mXmXmXmXmXmXhXhXW.      ,.+.+.+.+.+.+.<.b       ,.4.=                                                         W.hXhXmXmXmXmXmXmX",
"mXmXmXmXmXhXhX*X&       5.+.+.+.+.+.+.$.8     >.+.3.;                                                         & *XhXhXmXmXmXmXmX",
"mXmXmXmXmXhXaXh         ;.+.+.+.+.+.$.8     >.+.0.$X+X+X+X+X+X+XXX+X+X+X+X+X+X+X+X+X+X+X+X+X+X+X+XXX0           a aXhXmXmXmXmXmX",
"mXmXmXmXhXhX{           M +.+.+.+.#.e     ,.+.7.wXhXhXhXhXhXhXhXhXhXhXhXhXhXhXhXhXhXhXhXhXhXhXhXhXhXi             { hXhXmXmXmXmX",
"mXmXmXhXhX3X-           6 @.+.+.$.f     -.+.8.wXhXhXhXhXhXhXhXhXhXhXhXhXhXhXhXhXhXhXhXhXhXhXhXhXhXhXi             - 3XhXhXmXmXmX",
"mXmXmXhXhXW               :.+.#.e     -.+.8.wXhXhXhXhXhXhXhXhXhXhXhXhXhXhXhXhXhXhXhXhXhXhXhXhXhXhXhXy               Q hXhXmXmXmX",
"mXmXmXhX3X@               : <.f     -.+.8.eXhXhXhXhXhXhXhXhXhXhXhXhXhXhXhXhXhXhXhXhXhXhXhXhXhXhXhXhXi               @ 3XhXmXmXmX",
"mXmXhXhX`                   #     -.+.w.rXhXhXhXhXhXhXhXhXhXhXhXhXhXhXhXhXhXhXhXhXhXhXhXhXhXhXhXhXhXy                 ` hXhXmXmX",
"mXmXhXhX3                       -.+.0.rXhXhXhXhXhXhXhXhXhXhXhXhXhXhXhXhXhXhXhXhXhXhXhXhXhXhXhXhXhXhXi                 3 hXhXmXmX",
"mXhXhX X                      -.+.q.rXhXhXhXhXhXhXhXhXhXhXhXhXhXhXhXhXhXhXhXhXhXhXhXhXhXhXhXhXhXhXhXi                    XhXhXmX",
"mXhXhXQ                     -.+.w.rXhXhXhXhXhXhXhX8X8X5X5X5X8XhXhXhXhX5X8X7X5X5X8XhXhXhXhXhXhXhXhXhXy                   Q hXhXmX",
"mXhXhXt                   M +.q.rXhXhXhXhXhXhXhXhXx < 3 4 4 H hXhXhXhX0 < < 4 4 ( hXhXhXhXhXhXhXhXhXi                   t hXhXmX",
"mXhX3X                    7 :.~ hXhXhXhXhXhXhXhXhXhXhX;X;XhXhXhXhXhXhXhXaX;X3XhXhXhXhXhXhXhXhXhXhXhXy                     3XhXmX",
"hXhX/.                        E hXhXhXhXhXhXhXhXhXhX=X    aXhXhXhXhXhXhX|.  > hXhXhXhXhXhXhXhXhXhXhXy                     ^.hXhX",
"aXhX{                         E hXhXhXhXhXhXhXhXhXhXqX> i hXhXhXhXhXhXhX1X& G hXhXhXhXhXhXhXhXhXhXhXi                     ] hXhX",
"hXhXL                         E hXhXhXhXhXhXhXhXhXhXE.XXXX!.hXhXhXhXhXhXR.XXXX/.hXhXhXhXhXhXhXhXhXhXi                     L hXhX",
"hXhXG                         E hXhXhXhXhXhXhXhXhXhX Xy a #XhXhXhXhXhXhXQ.4 x 1XhXhXhXhXhXhXhXhXhXhXi                     G hXhX",
"hXhXl                         L hXhXhXhXhXhXhXhXhXhXhXhXhXhXhXhXhXhXhXhXhXhXhXhXhXhXhXhXhXhXhXhXhXhXy                     l hXhX",
"hXhXp                         W hXhXhXhXhXhXhXhXhXhXhXhXhXhXhXhXhXhXhXhXhXhXhXhXhXhXhXhXhXhXhXhXhXhXi                     a hXhX",
"hXhXp                         E hXhXhXhXhXhXhXhXhXhXhXhXhXhXhXhXhXhXhXhXhXhXhXhXhXhXhXhXhXhXhXhXhXhXi                     a hXhX",
"hXhXz                         E hXhX(.|.(.(.(.|.(.(.(.(.(.(.(.(.(.(.(.(.(.(.(.(.(.|.(.(.(.(.(.@XhXhXi                     l hXhX",
"hXhXG                         E hX,X'                                                         z.hXhXy                     G hXhX",
"hXhXL                         E hX>Xv.                                                      1 C.uXhXi                     L hXhX",
"hXhX]                         E hXx.C.^       O.vXvXvXvXvXvXvXvXvXvXvXvXvXvXvXvXvXvX .      r.Z.&XhXy                     { hXhX",
"hXhX/.                        E hX].C.l.         .cXbXnXnXnXnXnXnXnXnXnXnXnXnXbXxX}       q Z.Z.{.hXi                     /.hXsX",
"mXhX4X                        L hXS.Z.Z.k             c | o.kXlXzXzXlXkXo. .c             p.Z.Z.'.hXy                     3XhXmX",
"mXhXhXt                       L hXH.Z.Z.H.                                              w Z.Z.Z.D.hXi                   t hXhXmX",
"mXhXhXW                       W uXC.Z.Z.Z.S.U B q @                           @ 1 k I i.v.Z.Z.Z.Y.hXi                   ! hXhXmX",
"mXhXhX X                      W %XC.Z.Z.Z.Z.Z.Z.Z.Z.v.y./ T S C N B Z P U y.s.C.C.C.Z.Z.Z.Z.Z.Z.Z.hXy                    XhXhXmX",
"mXmXhXhX3                     L }.Z.Z.Z.Z.Z.Z.Z.Z.Z.Z.Z.Z.Z.Z.Z.Z.Z.Z.Z.Z.Z.Z.Z.Z.Z.Z.Z.Z.Z.Z.Z.Z.,Xy                 3 hXhXmXmX",
"mXmXhXhX`                     W ].Z.Z.Z.Z.Z.Z.Z.Z.Z.Z.Z.Z.Z.Z.Z.Z.Z.Z.Z.Z.Z.Z.Z.Z.Z.Z.Z.Z.Z.Z.Z.Z.-Xi                 ` hXhXmXmX",
"mXmXmXhX3X&                   L j.Z.Z.Z.Z.Z.Z.Z.Z.Z.Z.Z.Z.Z.Z.Z.Z.Z.Z.Z.Z.Z.Z.Z.Z.Z.Z.Z.Z.Z.Z.Z.Z.~.i               @ 3XhXmXmXmX",
"mXmXmXhXhXE                   L `.Z.Z.Z.Z.Z.Z.Z.Z.Z.Z.Z.Z.Z.Z.Z.Z.Z.Z.Z.Z.Z.Z.Z.Z.Z.Z.Z.Z.Z.Z.Z.Z.'.i               W hXhXmXmXmX",
"mXmXmXhXhX3X-                 W B.B.Z.Z.Z.Z.Z.Z.Z.Z.Z.Z.Z.Z.Z.Z.Z.Z.Z.Z.Z.Z.Z.Z.Z.Z.Z.Z.Z.Z.Z.Z.C.H.y             - 3XhXhXmXmXmX",
"mXmXmXmXhXhX{                 R Z.C.Z.Z.Z.Z.Z.Z.Z.Z.Z.Z.Z.Z.Z.Z.Z.Z.Z.Z.Z.Z.Z.Z.Z.Z.Z.Z.Z.Z.Z.Z.C.H.i             { hXhXmXmXmXmX",
"mXmXmXmXmXhXaXa               u.C.Z.Z.Z.Z.Z.Z.Z.Z.C.C.Z.Z.Z.Z.Z.C.C.Z.C.C.C.Z.C.Z.Z.Z.Z.Z.Z.Z.Z.Z.C.h           h aXhXmXmXmXmXmX",
"mXmXmXmXmXhXhX*X&             D l.P.s.Y.a.Y.s.P.v.D.H.l.P.s.Y.s.Y.l.H.v.D.H.l.P.h.P.s.P.h.H.v.D.H.l.A         & *XhXhXmXmXmXmXmX",
"mXmXmXmXmXmXhXhXW.                                                                                            E.hXhXmXmXmXmXmXmX",
"mXmXmXmXmXmXmXhXhX)                                                                                         ) hXhXmXmXmXmXmXmXmX",
"mXmXmXmXmXmXmXhXhXaXJ                                                                                     J hXhXhXmXmXmXmXmXmXmX",
"mXmXmXmXmXmXmXmXhXhXhXJ                                                                                 J hXhXhXmXmXmXmXmXmXmXmX",
"mXmXmXmXmXmXmXmXmXhXhXhX)                                                                             ) hXhXhXmXmXmXmXmXmXmXmXmX",
"mXmXmXmXmXmXmXmXmXmXhXhXhXW.&                                                                     & W.hXhXaXmXmXmXmXmXmXmXmXmXmX",
"mXmXmXmXmXmXmXmXmXmXmXhXhXhX*Xa                                                                 a *XhXhXhXmXmXmXmXmXmXmXmXmXmXmX",
"mXmXmXmXmXmXmXmXmXmXmXmXmXhXhXaX{ -                                                         - { aXhXhXmXmXmXmXmXmXmXmXmXmXmXmXmX",
"mXmXmXmXmXmXmXmXmXmXmXmXmXmXhXhXhX3XQ &                                                 & ! 3XhXhXhXmXmXmXmXmXmXmXmXmXmXmXmXmXmX",
"mXmXmXmXmXmXmXmXmXmXmXmXmXmXmXmXhXhXhX3X_ 3                                         < _ 3XhXhXhXmXmXmXmXmXmXmXmXmXmXmXmXmXmXmXmX",
"mXmXmXmXmXmXmXmXmXmXmXmXmXmXmXmXmXhXhXhXhXhX XW y                             y W  XhXhXhXhXhXmXmXmXmXmXmXmXmXmXmXmXmXmXmXmXmXmX",
"mXmXmXmXmXmXmXmXmXmXmXmXmXmXmXmXmXmXmXmXhXhXhXhXhX3X^.{ K F l h h l G K { ^.3XhXhXhXhXhXmXmXmXmXmXmXmXmXmXmXmXmXmXmXmXmXmXmXmXmX",
"mXmXmXmXmXmXmXmXmXmXmXmXmXmXmXmXmXmXmXmXmXmXhXhXhXhXhXhXhXhXhXhXhXhXhXhXhXhXhXhXhXhXmXmXmXmXmXmXmXmXmXmXmXmXmXmXmXmXmXmXmXmXmXmX",
"mXmXmXmXmXmXmXmXmXmXmXmXmXmXmXmXmXmXmXmXmXmXmXmXmXmXhXhXhXhXhXhXhXhXhXhXhXhXmXmXmXmXmXmXmXmXmXmXmXmXmXmXmXmXmXmXmXmXmXmXmXmXmXmX"
};
