/* XPM */
static char *c9d8aa97c33d4602a939b3a94d84550e[] = {
/* columns rows colors chars-per-pixel */
"32 32 139 2 ",
"   c black",
".  c #030000",
"X  c #020201",
"o  c #070702",
"O  c #070707",
"+  c #080301",
"@  c #080803",
"#  c #0D0D06",
"$  c #0E0E06",
"%  c #090909",
"&  c #120803",
"*  c #130803",
"=  c #190B04",
"-  c #1C1C07",
";  c #131309",
":  c #1B1B0C",
">  c #1C1C0D",
",  c #1F1F0C",
"<  c gray8",
"1  c #1E1E1E",
"2  c #2B1309",
"3  c #3C1A0C",
"4  c #202008",
"5  c #26260A",
"6  c #242410",
"7  c #252511",
"8  c #262611",
"9  c #292913",
"0  c #2A2A13",
"q  c #2F2F16",
"w  c #373711",
"e  c #333316",
"r  c #3C3C12",
"t  c #3C3C16",
"y  c #2A2A2A",
"u  c #2D2D2D",
"i  c #4A1F0F",
"p  c #545419",
"a  c #55551A",
"s  c #50501D",
"d  c #53531D",
"f  c #56561C",
"g  c #5C5C1E",
"h  c #4B4B22",
"j  c #4C4C23",
"k  c #4F4F25",
"l  c #565628",
"z  c #585829",
"x  c #5A5A2A",
"c  c #5F5B2A",
"v  c #707023",
"b  c #727226",
"n  c #686830",
"m  c #7A7A38",
"M  c #7C7C39",
"N  c #7C7C3A",
"B  c #7D7D3A",
"V  c #7E7E3A",
"C  c #414141",
"Z  c #494949",
"A  c #883217",
"S  c #BB391A",
"D  c #BD391A",
"F  c #BE391A",
"G  c #BF391A",
"H  c red",
"J  c #FD0C05",
"K  c #F71C0D",
"L  c #C0391A",
"P  c #C8381A",
"I  c #D23719",
"U  c #D63519",
"Y  c #E92C14",
"T  c #EA2C14",
"R  c #DE4520",
"E  c #F04721",
"W  c #F74F25",
"Q  c #F75226",
"!  c #8C8C26",
"~  c #8C8C27",
"^  c #858529",
"/  c #898929",
"(  c #8D8D28",
")  c #8E8E28",
"_  c #8E8E29",
"`  c #8D8D2B",
"'  c #8F8F2A",
"]  c #92922C",
"[  c #969631",
"{  c #999933",
"}  c #9D9D38",
"|  c #9E9E3A",
" . c #8A8A40",
".. c #8B8B40",
"X. c #8F8F42",
"o. c #939344",
"O. c #959545",
"+. c #9F9F4A",
"@. c #A7A742",
"#. c #A8A841",
"$. c #A4A44C",
"%. c #B7B74D",
"&. c #ACAC50",
"*. c #AFAF51",
"=. c #B0B052",
"-. c #B2B252",
";. c #B6B655",
":. c #B7B755",
">. c #BDBD50",
",. c #B8B855",
"<. c #B9B956",
"1. c #BEBE58",
"2. c #C0C059",
"3. c #C6C65C",
"4. c #C7C75C",
"5. c #CFCF5B",
"6. c #C8C85D",
"7. c #CBCB5D",
"8. c #CFCF60",
"9. c #D1D161",
"0. c #D2D262",
"q. c #D4D462",
"w. c #D9D961",
"e. c #DBDB65",
"r. c #DCDC66",
"t. c #E1E168",
"y. c #E1E169",
"u. c #E2E269",
"i. c #E7E369",
"p. c #E5E56A",
"a. c #E5E56B",
"s. c #E7E46A",
"d. c #E6E66A",
"f. c #E6E66B",
"g. c gray60",
"h. c gray62",
"j. c #DADADA",
"k. c gray87",
"l. c None",
/* pixels */
"l.l.l.l.l.l.l.l.l.l.l.l.f.f.f.f.f.f.f.f.l.l.l.l.l.l.l.l.l.l.l.l.",
"l.l.l.l.l.l.l.l.l.f.f.,.m j 7 : : 9 j m :.f.f.l.l.l.l.l.l.l.l.l.",
"l.l.l.l.l.l.l.f.t. .6 X X X X X X X X X X 6  .t.f.l.l.l.l.l.l.l.",
"l.l.l.l.l.l.f.*.6 X X X X X X X X X X X X X X 6 *.f.l.l.l.l.l.l.",
"l.l.l.l.l.f.N X X X X X X X X X X X X X X X X X X m f.l.l.l.l.l.",
"l.l.l.l.f.n X 2 + X X X X X X X X X X X X X X X X X n f.l.l.l.l.",
"l.l.l.f.m X I H J P = X A X X X X X X X X X X X X X X m f.l.l.l.",
"l.l.f.*.X X K H H Y & G E c x x x x x x x x x x x o X X -.f.l.l.",
"l.l.y.7 X X U H Y & D W i.f.f.f.f.f.f.f.f.f.f.f.f.; X X 6 y.l.l.",
"l.f. .X X X i Y & D W i.f.f.f.f.f.f.f.f.f.f.f.f.f.; X X X  .f.l.",
"l.f.7 X X X X X D Q i.r.q.9.9.r.f.r.9.9.9.r.f.f.f.; X X X 7 f.l.",
"l.:.X X X X X S Q s.f.X.l x x $.f.O.l l x $.f.f.f.; X X X X ,.l.",
"f.m X X X X 3 R s.f.f.f.-.k 4.f.f.f.,.k 2.f.f.f.f.; X X X X m y.",
"f.h X X X X X q f.f.f.f.:.$ 8.f.f.f.1.$ 6.f.f.f.f.; X X X X h f.",
"f.9 X X X X X q f.f.f.f.m M o.f.f.f.N N X.f.f.f.f.; X X X X 9 f.",
"f.: X X X X X q f.f.f.f.e.&.y.f.f.f.r.*.r.f.f.f.f.; X X X X > f.",
"f.: X X X X X q f.3.3.3.3.3.3.3.3.3.3.3.3.3.3.6.f.; X X X X : f.",
"f.9 X X X X X q w.s X X X X X X X X X X X X X g f.; X X X X 9 f.",
"f.h X X X X X q >.) X 1 h.j.k.k.k.k.k.j.g.< o ~ 5.; X X X X h f.",
"f.m X X X X X q @.! s X X O y C Z C u O X X p ! %.; X X X X m f.",
"l.,.X X X X X q | ! / ^ v f w 4 - 5 r p v / ! ! @.; X X X X :.l.",
"l.f.7 X X X X q { ! ~ ~ ! ! / ~ ! ! ! ! ~ ~ ! ! } ; X X X 7 f.l.",
"l.f. .X X X X q ] ! ~ ~ ! ! ! ! ! ! ! ! ~ ~ ! ! [ ; X X X  .f.l.",
"l.l.y.7 X X X w ! ! ! ! ! ! ! ! ! ! ! ! ~ ~ ! ! ) ; X X 7 y.l.l.",
"l.l.f.-.X X X t ! ) / ! ) ) ) ) ) ~ ) ! ) ! ) ! ) > X X *.f.l.l.",
"l.l.l.f.m X X X X X X X X X X X X X X X X X X X X X X m f.l.l.l.",
"l.l.l.l.f.n X X X X X X X X X X X X X X X X X X X X n f.l.l.l.l.",
"l.l.l.l.l.f.m X X X X X X X X X X X X X X X X X X m f.l.l.l.l.l.",
"l.l.l.l.l.l.f.*.7 X X X X X X X X X X X X X X 6 *.f.l.l.l.l.l.l.",
"l.l.l.l.l.l.l.f.y. .6 X X X X X X X X X X 7  .t.f.l.l.l.l.l.l.l.",
"l.l.l.l.l.l.l.l.l.f.f.:.m h 9 : : 9 h m ,.f.f.l.l.l.l.l.l.l.l.l.",
"l.l.l.l.l.l.l.l.l.l.l.l.f.f.f.f.f.f.f.f.l.l.l.l.l.l.l.l.l.l.l.l."
};
