/* XPM */
static char *c855efd411d8445ce068d8482f0ad5e3[] = {
/* columns rows colors chars-per-pixel */
"16 16 73 1 ",
"  c black",
". c #010000",
"X c #090904",
"o c #131309",
"O c #17170D",
"+ c #18180A",
"@ c #18180B",
"# c #19190B",
"$ c #1F1F0E",
"% c #38180B",
"& c #20200F",
"* c #27220E",
"= c #2F2F15",
"- c #27271E",
"; c gray16",
": c #2B2A29",
"> c #33322B",
", c #353429",
"< c #431C0C",
"1 c #613317",
"2 c #63632D",
"3 c #64642F",
"4 c #666630",
"5 c #67663D",
"6 c #7D7D3A",
"7 c gray37",
"8 c #797979",
"9 c #842E15",
"0 c #F71D0D",
"q c #D53618",
"w c #F22410",
"e c #874721",
"r c #E26F33",
"t c #83833D",
"y c #84843E",
"u c #86863E",
"i c #8A8A40",
"p c #94944D",
"a c #9B9B48",
"s c #9C9C48",
"d c #9D9D48",
"f c #9D9D49",
"g c #9C9C4A",
"h c #99994C",
"j c #A0A04A",
"k c #A9A94E",
"l c #ACAC50",
"z c #B8B855",
"x c #B1B158",
"c c #B3B358",
"v c #BFBF59",
"b c #BCBC5A",
"n c #C2C259",
"m c #CACA5E",
"M c #D0CF63",
"N c #D0D060",
"B c #D1D160",
"V c #D1D161",
"C c #D3D362",
"Z c #D4D463",
"A c #D5D563",
"S c #D9D964",
"D c #D8D866",
"F c #D9D966",
"G c #DBDB67",
"H c #DDDD66",
"J c #DEDE68",
"K c #E5E56A",
"L c #E7E56A",
"P c #E6E66B",
"I c #898989",
"U c gray57",
"Y c None",
/* pixels */
"YYYYYAfithAYYYYY",
"YYYV4X    X4VYYY",
"YYv*        $vYY",
"YV&0w<e=====@&VY",
"Y3 q9rLPPPPP6 3Y",
"VX %rLbcPpGP6 XA",
"f  1LD,>x-5P6  f",
"y  @LP:hP:ZL6  t",
"y  @PPGNPFJP6  y",
"g  @mO7IU8;ky  g",
"CX @GFnlkzNLi XC",
"Y2 +KLLLPPPPj 3Y",
"YV&ofhdfdfff2&VY",
"YYv$        $vYY",
"YYYV4X    X4VYYY",
"YYYYYAfyyfAYYYYY"
};
